<svg xmlns="http://www.w3.org/2000/svg" viewBox="0 0 680 780" width="680" height="780"><defs><linearGradient id="s2-sky" x2="0" y2="1"><stop stop-color="#b4c5c2"/><stop offset="1" stop-color="#e9ddd0"/></linearGradient><linearGradient id="s2-water" x2="0" y2="1"><stop stop-color="#607e7c"/><stop offset="1" stop-color="#173c42"/></linearGradient></defs><rect width="680" height="780" fill="url(#s2-sky)"/><g data-depth=".3"><circle cx="35" cy="27" r="1.9" fill="#f6e9cd" opacity=".8"/><circle cx="78" cy="94" r="1" fill="#f6e9cd" opacity=".8"/><circle cx="121" cy="161" r="1" fill="#f6e9cd" opacity=".8"/><circle cx="164" cy="228" r="1.9" fill="#f6e9cd" opacity=".8"/><circle cx="207" cy="295" r="1" fill="#f6e9cd" opacity=".8"/><circle cx="250" cy="52" r="1" fill="#f6e9cd" opacity=".8"/><circle cx="293" cy="119" r="1.9" fill="#f6e9cd" opacity=".8"/><circle cx="336" cy="186" r="1" fill="#f6e9cd" opacity=".8"/><circle cx="379" cy="253" r="1" fill="#f6e9cd" opacity=".8"/><circle cx="422" cy="320" r="1.9" fill="#f6e9cd" opacity=".8"/><circle cx="465" cy="77" r="1" fill="#f6e9cd" opacity=".8"/><circle cx="508" cy="144" r="1" fill="#f6e9cd" opacity=".8"/><circle cx="551" cy="211" r="1.9" fill="#f6e9cd" opacity=".8"/><circle cx="594" cy="278" r="1" fill="#f6e9cd" opacity=".8"/><circle cx="637" cy="35" r="1" fill="#f6e9cd" opacity=".8"/><circle cx="530" cy="145" r="12" fill="#f8e7c8"/><circle cx="530" cy="145" r="67" fill="none" stroke="#f8e7c8" opacity=".45"/><path d="M-30 398q116-70 241-5t251-31 245 43v133H-30Z" fill="#98a68d"/><path d="M-20 435q120-26 267 17t231-33 225 11v102H-20Z" fill="#708772"/></g><path d="M0 483q200-19 400 3t280-5v299H0Z" fill="url(#s2-water)"/><path d="M15 511q140 -12 270 0t260 0" fill="none" stroke="#bdc6a9" stroke-width="1.3" opacity=".5"/><path d="M54 524q140 -5 270 0t340 0" fill="none" stroke="#94aa91" stroke-width="0.6" opacity=".5"/><path d="M93 537q140 2 270 0t260 0" fill="none" stroke="#bdc6a9" stroke-width="0.6" opacity=".5"/><path d="M27 550q140 -12 270 0t340 0" fill="none" stroke="#94aa91" stroke-width="1.3" opacity=".5"/><path d="M66 563q140 -5 270 0t260 0" fill="none" stroke="#bdc6a9" stroke-width="0.6" opacity=".5"/><path d="M105 576q140 2 270 0t340 0" fill="none" stroke="#94aa91" stroke-width="0.6" opacity=".5"/><path d="M39 589q140 -12 270 0t260 0" fill="none" stroke="#bdc6a9" stroke-width="1.3" opacity=".5"/><path d="M78 602q140 -5 270 0t340 0" fill="none" stroke="#94aa91" stroke-width="0.6" opacity=".5"/><path d="M117 615q140 2 270 0t260 0" fill="none" stroke="#bdc6a9" stroke-width="0.6" opacity=".5"/><path d="M51 628q140 -12 270 0t340 0" fill="none" stroke="#94aa91" stroke-width="1.3" opacity=".5"/><path d="M90 641q140 -5 270 0t260 0" fill="none" stroke="#bdc6a9" stroke-width="0.6" opacity=".5"/><path d="M24 654q140 2 270 0t340 0" fill="none" stroke="#94aa91" stroke-width="0.6" opacity=".5"/><path d="M63 667q140 -12 270 0t260 0" fill="none" stroke="#bdc6a9" stroke-width="1.3" opacity=".5"/><path d="M102 680q140 -5 270 0t340 0" fill="none" stroke="#94aa91" stroke-width="0.6" opacity=".5"/><path d="M36 693q140 2 270 0t260 0" fill="none" stroke="#bdc6a9" stroke-width="0.6" opacity=".5"/><path d="M75 706q140 -12 270 0t340 0" fill="none" stroke="#94aa91" stroke-width="1.3" opacity=".5"/><path d="M114 719q140 -5 270 0t260 0" fill="none" stroke="#bdc6a9" stroke-width="0.6" opacity=".5"/><path d="M48 732q140 2 270 0t340 0" fill="none" stroke="#94aa91" stroke-width="0.6" opacity=".5"/><path d="M87 745q140 -12 270 0t260 0" fill="none" stroke="#bdc6a9" stroke-width="1.3" opacity=".5"/><g data-depth="1.1"><circle cx="343" cy="260" r="104" fill="#f1dec0"/><circle cx="382" cy="238" r="91" fill="#b4c5c2"/><path d="M137 500V325h58v175M486 502V274h51v228" fill="#b2aa91"/><path d="M153 500V325h42v175M500 502V274h37v228" fill="#e2ccb0"/><path d="M208 550V380h254v170Z" fill="#193e40"/><path d="M208 380 299 351 518 383 462 407Z" fill="#d4bfa2"/><path d="M462 407 518 383v146l-56 21Z" fill="#668578"/><path d="M253 550V441a44 44 0 0 1 88 0v109" fill="#a6b5a1"/><path d="M265 550V446a32 32 0 0 1 64 0v104" fill="#254f50"/><ellipse cx="344" cy="614" rx="169" ry="39" fill="#bcc7b3" opacity=".25"/><path d="M333 652q75-10 85-32" stroke="#d7d5b6" fill="none"/></g><g data-depth="1.8"><path d="M-31 786q43-149 96-152 38 0 84 66l42 86Z" fill="#173c42"/><path d="M-12 734q19-63 72-55l74 56-24 51H-12Z" fill="#304b42"/><path d="M587 786q-37-110 28-147 64-29 85 27v120Z" fill="#284a42"/><path d="M620 652q8-137 34-237" stroke="#385b47" stroke-width="4" fill="none"/><path d="M645 451q-44-11-40-53 34 2 40 53m-8 43q44-10 40-53-34 2-40 53m-10 50q-45-11-39-54 32 4 39 54m-4 43q43-10 42-51-34 4-42 51" fill="#456650"/></g><path d="M28 44h24M40 32v24" stroke="#36594c"/><circle cx="40" cy="44" r="23" fill="none" stroke="#456a58" opacity=".35"/><path d="M337 55h6m-3-3v6" stroke="#f3e8d4"/></svg>